<?xml version="1.0" encoding="UTF-8" standalone="no"?>
<!-- Created with Inkscape (http://www.inkscape.org/) -->

<svg
   xmlns:dc="http://purl.org/dc/elements/1.1/"
   xmlns:cc="http://creativecommons.org/ns#"
   xmlns:rdf="http://www.w3.org/1999/02/22-rdf-syntax-ns#"
   xmlns:svg="http://www.w3.org/2000/svg"
   xmlns="http://www.w3.org/2000/svg"
   xmlns:sodipodi="http://sodipodi.sourceforge.net/DTD/sodipodi-0.dtd"
   xmlns:inkscape="http://www.inkscape.org/namespaces/inkscape"
   width="400"
   height="400"
   id="svg2989"
   version="1.1"
   inkscape:version="0.48.2 r9819"
   sodipodi:docname="icon.svg"
   inkscape:export-filename="C:\Users\Kilian\Documents\PythonLibs\PyFECS\favicon.png"
   inkscape:export-xdpi="7.1999998"
   inkscape:export-ydpi="7.1999998">
  <defs
     id="defs2991" />
  <sodipodi:namedview
     id="base"
     pagecolor="#ffffff"
     bordercolor="#666666"
     borderopacity="1.0"
     inkscape:pageopacity="0.0"
     inkscape:pageshadow="2"
     inkscape:zoom="1.4"
     inkscape:cx="263.57143"
     inkscape:cy="160.4061"
     inkscape:document-units="px"
     inkscape:current-layer="layer1"
     showgrid="false"
     inkscape:window-width="1680"
     inkscape:window-height="988"
     inkscape:window-x="-8"
     inkscape:window-y="22"
     inkscape:window-maximized="1" />
  <metadata
     id="metadata2994">
    <rdf:RDF>
      <cc:Work
         rdf:about="">
        <dc:format>image/svg+xml</dc:format>
        <dc:type
           rdf:resource="http://purl.org/dc/dcmitype/StillImage" />
        <dc:title></dc:title>
      </cc:Work>
    </rdf:RDF>
  </metadata>
  <g
     inkscape:label="Layer 1"
     inkscape:groupmode="layer"
     id="layer1"
     transform="translate(0,-652.36218)">
    <rect
       style="fill:#668000;fill-opacity:1;stroke:none"
       id="rect3005-3"
       width="380"
       height="379.99994"
       x="10"
       y="662.36218"
       rx="40"
       ry="40" />
    <rect
       style="fill:#aad400;fill-opacity:1;stroke:none"
       id="rect3005"
       width="372.30206"
       height="372.302"
       x="10"
       y="670.06018"
       rx="40"
       ry="40" />
    <path
       style="fill:none;stroke:#483e37;stroke-width:10;stroke-linecap:butt;stroke-linejoin:miter;stroke-miterlimit:4;stroke-opacity:1;stroke-dasharray:none"
       d="m 85.714285,785.36218 64.285725,0 0,-73.42857 85,0 0,73.42857 79.99999,0"
       id="path3072"
       inkscape:connector-curvature="0"
       sodipodi:nodetypes="cccccc" />
    <g
       transform="translate(-46.451355,762.21933)"
       style="font-size:40px;font-style:normal;font-weight:normal;line-height:125%;letter-spacing:6px;word-spacing:0px;fill:#000000;fill-opacity:1;stroke:none;font-family:Sans"
       id="flowRoot2997">
      <path
         d="m 137.52924,139.80435 -38.996891,0 0,35.25238 33.750911,0 0,11.24725 -33.750911,0 0,45.45136 -14.250183,0 0,-103.34931 54.899594,0 z"
         style="font-size:150px;font-variant:normal;font-stretch:normal;font-family:Fira Sans;-inkscape-font-specification:Fira Sans"
         id="path3026"
         inkscape:connector-curvature="0" />
      <path
         d="m 218.11725,139.80435 -40.04975,0 0,33.75091 34.7992,0 0,11.39832 -34.7992,0 0,35.40344 42.89704,0 0,11.39832 -57.14722,0 0,-103.34931 55.94788,0 z"
         style="font-size:150px;font-variant:normal;font-stretch:normal;font-family:Fira Sans;-inkscape-font-specification:Fira Sans"
         id="path3028"
         inkscape:connector-curvature="0" />
      <path
         d="m 286.24036,126.60702 c 6.20111,1.1e-4 11.42648,0.79966 15.67611,2.39868 4.24951,1.59922 8.5746,4.19932 12.97531,7.80029 l -7.80029,9.1507 c -6.30194,-5.0994 -12.95324,-7.64914 -19.95392,-7.64923 -8.59989,9e-5 -15.52433,3.2998 -20.77331,9.89914 -5.24905,6.5995 -7.87356,17.19901 -7.87354,31.79855 -2e-5,14.19987 2.60007,24.67502 7.8003,31.42548 5.20015,6.7505 12.10017,10.12574 20.70007,10.12573 4.40058,10e-6 8.20077,-0.74996 11.4006,-2.24991 3.1997,-1.49992 6.6993,-3.65065 10.49881,-6.45218 l 7.20063,9.1507 c -3.10067,3.29896 -7.17629,6.04859 -12.22687,8.2489 -5.05073,2.20032 -10.82617,3.30047 -17.32636,3.30048 -8.39848,-1e-5 -15.87299,-2.0752 -22.42355,-6.22559 -6.55062,-4.15038 -11.65087,-10.25008 -15.30075,-18.2991 -3.64991,-8.04898 -5.47486,-17.72381 -5.47485,-29.02451 -1e-5,-11.30059 1.90047,-20.97542 5.70144,-29.0245 3.80095,-8.04893 8.95078,-14.12344 15.44953,-18.22358 6.49868,-4.09993 13.74888,-6.14994 21.75064,-6.15005 z"
         style="font-size:150px;font-variant:normal;font-stretch:normal;font-family:Fira Sans;-inkscape-font-specification:Fira Sans"
         id="path3030"
         inkscape:connector-curvature="0" />
      <path
         d="m 365.67023,126.60702 c 6.89997,1.1e-4 12.80054,0.97514 17.70172,2.92511 4.90106,1.95017 9.65111,4.97446 14.25018,9.07288 l -7.80029,8.70208 c -3.90021,-3.1005 -7.72558,-5.37558 -11.47614,-6.82525 -3.75066,-1.4495 -7.77592,-2.17429 -12.0758,-2.17438 -5.3986,9e-5 -9.84806,1.24979 -13.34839,3.74908 -3.50039,2.49948 -5.25057,6.14938 -5.25055,10.94971 -2e-5,2.99995 0.60041,5.52452 1.8013,7.5737 1.20084,2.04933 3.42633,3.92387 6.67648,5.62363 3.25009,1.69989 7.97421,3.50043 14.17237,5.40161 6.50019,1.99896 11.90027,4.14892 16.20025,6.44989 4.29986,2.30108 7.77505,5.47643 10.42557,9.52606 2.65038,4.04972 3.9756,9.17515 3.97568,15.37628 -8e-5,5.99978 -1.47484,11.29915 -4.42429,15.89814 -2.94959,4.599 -7.19992,8.19855 -12.75101,10.79864 -5.5512,2.6001 -12.1262,3.90014 -19.72503,3.90015 -14.30056,-1e-5 -26.00099,-4.44946 -35.10132,-13.34839 l 7.95135,-8.84857 c 4.0985,3.49733 8.29771,6.12107 12.59766,7.87124 4.2999,1.7502 9.10031,2.62529 14.40125,2.62528 6.39949,10e-6 11.69962,-1.5747 15.90042,-4.72412 4.20068,-3.1494 6.30105,-7.72398 6.30111,-13.72376 -6e-5,-3.39963 -0.65008,-6.22479 -1.95007,-8.47549 -1.30011,-2.25064 -3.5256,-4.27547 -6.67648,-6.07453 -3.15099,-1.79896 -7.72633,-3.59874 -13.72605,-5.39932 -10.59878,-3.20124 -18.34795,-7.05179 -23.24752,-11.55167 -4.89961,-4.49975 -7.34941,-10.59944 -7.3494,-18.2991 -10e-6,-5.20011 1.37481,-9.85022 4.12445,-13.95035 2.74962,-4.09994 6.59941,-7.2997 11.54938,-9.5993 4.94992,-2.2994 10.5743,-3.44914 16.87317,-3.44925 z"
         style="font-size:150px;font-variant:normal;font-stretch:normal;font-family:Fira Sans;-inkscape-font-specification:Fira Sans"
         id="path3032"
         inkscape:connector-curvature="0" />
    </g>
    <path
       style="fill:none;stroke:#917c6f;stroke-width:10;stroke-linecap:butt;stroke-linejoin:miter;stroke-miterlimit:4;stroke-opacity:1;stroke-dasharray:none"
       d="m 60.714285,815.36218 64.285725,0 0,-73.42857 85,0 0,73.42857 119.99999,0"
       id="path3072-8"
       inkscape:connector-curvature="0"
       sodipodi:nodetypes="cccccc" />
    <path
       style="fill:none;stroke:#e3dedb;stroke-width:10;stroke-linecap:butt;stroke-linejoin:miter;stroke-miterlimit:4;stroke-opacity:1;stroke-dasharray:none"
       d="m 35.714285,845.36218 64.285725,0 0,-73.42857 85,0 0,73.42857 159.99999,0"
       id="path3072-2"
       inkscape:connector-curvature="0"
       sodipodi:nodetypes="cccccc" />
  </g>
</svg>
